<svg width="270" height="128" viewBox="0 0 270 128" fill="none" xmlns="http://www.w3.org/2000/svg">
<g filter="url(#filter0_d_13_757)">
<rect x="24" y="10" width="80" height="80" fill="#BEAD8E"/>
</g>
<path d="M51.54 63.8301V36.3901H57.5V47.2701H69.66V36.3901H75.62V63.8301H69.66V52.3101H57.5V63.8301H51.54Z" fill="white"/>
<path d="M134.086 46.3999V28.5639H137.96V35.6359H145.864V28.5639H149.738V46.3999H145.864V38.9119H137.96V46.3999H134.086ZM164.608 46.7119C162.718 46.7119 161.089 46.3739 159.72 45.6979C158.35 45.0219 157.302 43.9992 156.574 42.6299C155.846 41.2606 155.482 39.5446 155.482 37.4819C155.482 35.3846 155.846 33.6599 156.574 32.3079C157.302 30.9386 158.35 29.9246 159.72 29.2659C161.089 28.5899 162.718 28.2519 164.608 28.2519C166.532 28.2519 168.17 28.5899 169.522 29.2659C170.891 29.9246 171.94 30.9386 172.668 32.3079C173.396 33.6599 173.76 35.3846 173.76 37.4819C173.76 39.5446 173.396 41.2606 172.668 42.6299C171.94 43.9992 170.891 45.0219 169.522 45.6979C168.17 46.3739 166.532 46.7119 164.608 46.7119ZM164.608 43.5399C165.457 43.5399 166.202 43.4186 166.844 43.1759C167.485 42.9332 168.022 42.5692 168.456 42.0839C168.889 41.5986 169.218 41.0092 169.444 40.3159C169.669 39.6052 169.782 38.7992 169.782 37.8979V37.0919C169.782 36.1732 169.669 35.3586 169.444 34.6479C169.218 33.9372 168.889 33.3479 168.456 32.8799C168.022 32.3946 167.485 32.0306 166.844 31.7879C166.202 31.5452 165.457 31.4239 164.608 31.4239C163.776 31.4239 163.039 31.5452 162.398 31.7879C161.756 32.0306 161.219 32.3946 160.786 32.8799C160.352 33.3479 160.023 33.9372 159.798 34.6479C159.59 35.3586 159.486 36.1732 159.486 37.0919V37.8979C159.486 38.7992 159.59 39.6052 159.798 40.3159C160.023 41.0092 160.352 41.5986 160.786 42.0839C161.219 42.5692 161.756 42.9332 162.398 43.1759C163.039 43.4186 163.776 43.5399 164.608 43.5399ZM183.213 46.3999V31.8139H177.493V28.5639H192.859V31.8139H187.113V46.3999H183.213ZM198.075 46.3999V28.5639H212.323V31.7359H201.975V35.7139H211.127V38.8599H201.975V43.2019H212.479V46.3999H198.075ZM218.423 46.3999V28.5639H222.297V43.0979H231.293V46.3999H218.423ZM134.346 74.3999V56.5639H138.168L142.224 68.1339C142.328 68.4459 142.432 68.7926 142.536 69.1739C142.657 69.5379 142.761 69.8846 142.848 70.2139C142.952 70.5432 143.03 70.8292 143.082 71.0719H143.264C143.316 70.8119 143.385 70.5172 143.472 70.1879C143.559 69.8412 143.654 69.4859 143.758 69.1219C143.862 68.7579 143.957 68.4286 144.044 68.1339L148.1 56.5639H151.896V74.3999H149.426V63.9479C149.426 63.4106 149.435 62.8299 149.452 62.2059C149.469 61.5646 149.487 60.9839 149.504 60.4639C149.521 59.9266 149.53 59.5452 149.53 59.3199H149.322C149.27 59.5452 149.183 59.8659 149.062 60.2819C148.941 60.6806 148.811 61.1052 148.672 61.5559C148.551 61.9892 148.438 62.3792 148.334 62.7259L144.148 74.3999H142.016L137.83 62.7259C137.726 62.4312 137.613 62.0932 137.492 61.7119C137.388 61.3132 137.275 60.9059 137.154 60.4899C137.05 60.0739 136.946 59.6839 136.842 59.3199H136.66C136.677 59.7012 136.686 60.1779 136.686 60.7499C136.703 61.3046 136.712 61.8679 136.712 62.4399C136.729 62.9946 136.738 63.4972 136.738 63.9479V74.3999H134.346ZM158.96 74.3999V56.5639H161.43V74.3999H158.96ZM168.491 74.3999V56.5639H177.877C179.091 56.5639 180.096 56.7892 180.893 57.2399C181.708 57.6732 182.315 58.2886 182.713 59.0859C183.112 59.8659 183.311 60.7672 183.311 61.7899C183.311 63.0206 183.034 64.0779 182.479 64.9619C181.925 65.8459 181.162 66.4786 180.191 66.8599L183.935 74.3999H181.231L177.747 67.3019H170.961V74.3999H168.491ZM170.961 65.1959H177.643C178.631 65.1959 179.403 64.8926 179.957 64.2859C180.529 63.6792 180.815 62.8472 180.815 61.7899C180.815 61.1312 180.694 60.5766 180.451 60.1259C180.209 59.6752 179.853 59.3286 179.385 59.0859C178.917 58.8259 178.337 58.6959 177.643 58.6959H170.961V65.1959ZM187.928 74.3999L194.974 56.5639H198.224L205.296 74.3999H202.618L200.876 69.9799H192.192L190.476 74.3999H187.928ZM192.998 67.8739H200.044L197.886 62.2839C197.834 62.1279 197.756 61.9112 197.652 61.6339C197.548 61.3566 197.435 61.0532 197.314 60.7239C197.193 60.3772 197.071 60.0306 196.95 59.6839C196.829 59.3199 196.716 58.9906 196.612 58.6959H196.456C196.335 59.0426 196.196 59.4412 196.04 59.8919C195.884 60.3426 195.728 60.7846 195.572 61.2179C195.416 61.6339 195.286 61.9892 195.182 62.2839L192.998 67.8739ZM210.305 74.3999V56.5639H212.697L221.355 68.3159C221.441 68.4199 221.554 68.5759 221.693 68.7839C221.831 68.9919 221.97 69.1999 222.109 69.4079C222.247 69.5986 222.36 69.7719 222.447 69.9279H222.551C222.551 69.6506 222.551 69.3819 222.551 69.1219C222.551 68.8446 222.551 68.5759 222.551 68.3159V56.5639H224.969V74.3999H222.707L213.945 62.4399C213.823 62.2492 213.641 61.9806 213.399 61.6339C213.173 61.2872 212.983 61.0099 212.827 60.8019H212.697C212.697 61.0792 212.697 61.3566 212.697 61.6339C212.697 61.8939 212.697 62.1626 212.697 62.4399V74.3999H210.305ZM232.049 74.3999V56.5639H238.705C240.577 56.5639 242.172 56.8759 243.489 57.4999C244.806 58.1239 245.812 59.0946 246.505 60.4119C247.216 61.7119 247.571 63.4019 247.571 65.4819C247.571 67.5272 247.216 69.2086 246.505 70.5259C245.812 71.8432 244.806 72.8226 243.489 73.4639C242.172 74.0879 240.577 74.3999 238.705 74.3999H232.049ZM234.519 72.2679H238.653C239.641 72.2679 240.525 72.1466 241.305 71.9039C242.085 71.6439 242.752 71.2539 243.307 70.7339C243.862 70.2139 244.278 69.5466 244.555 68.7319C244.85 67.8999 244.997 66.9119 244.997 65.7679V65.2479C244.997 64.0692 244.85 63.0726 244.555 62.2579C244.278 61.4259 243.862 60.7499 243.307 60.2299C242.77 59.7099 242.111 59.3286 241.331 59.0859C240.551 58.8259 239.658 58.6959 238.653 58.6959H234.519V72.2679ZM251.359 74.3999L258.405 56.5639H261.655L268.727 74.3999H266.049L264.307 69.9799H255.623L253.907 74.3999H251.359ZM256.429 67.8739H263.475L261.317 62.2839C261.265 62.1279 261.187 61.9112 261.083 61.6339C260.979 61.3566 260.866 61.0532 260.745 60.7239C260.623 60.3772 260.502 60.0306 260.381 59.6839C260.259 59.3199 260.147 58.9906 260.043 58.6959H259.887C259.765 59.0426 259.627 59.4412 259.471 59.8919C259.315 60.3426 259.159 60.7846 259.003 61.2179C258.847 61.6339 258.717 61.9892 258.613 62.2839L256.429 67.8739Z" fill="#111111"/>
<defs>
<filter id="filter0_d_13_757" x="0" y="0" width="128" height="128" filterUnits="userSpaceOnUse" color-interpolation-filters="sRGB">
<feFlood flood-opacity="0" result="BackgroundImageFix"/>
<feColorMatrix in="SourceAlpha" type="matrix" values="0 0 0 0 0 0 0 0 0 0 0 0 0 0 0 0 0 0 127 0" result="hardAlpha"/>
<feOffset dy="14"/>
<feGaussianBlur stdDeviation="12"/>
<feComposite in2="hardAlpha" operator="out"/>
<feColorMatrix type="matrix" values="0 0 0 0 0.545098 0 0 0 0 0.545098 0 0 0 0 0.545098 0 0 0 0.15 0"/>
<feBlend mode="normal" in2="BackgroundImageFix" result="effect1_dropShadow_13_757"/>
<feBlend mode="normal" in="SourceGraphic" in2="effect1_dropShadow_13_757" result="shape"/>
</filter>
</defs>
</svg>
